# xmcd
#
# Track frame offsets: 
#        150
#        16211
#        34525
#        57187
#        71793
#        96974
#        114406
#        137162
#        162692
#        182602
#        201869
#
# Disc length: 2929 seconds
#
# Revision: 0
# Processed by: cddbd v1.5.2PL0 Copyright (c) Steve Scherf et al.
# Submitted via: ExactAudioCopy v0.95b4
#
DISCID=980b6f0b
DTITLE=Scottie Miller and The Re-Uptake Inhibitors - Elixir For The Soul
DYEAR=2007
DGENRE=Blues
TTITLE0=Move On
TTITLE1=One More Day
TTITLE2=Burned By the Man
TTITLE3=Sweet Babe
TTITLE4=Anna Marie
TTITLE5=I Gotta' Blow
TTITLE6=Tired and Hungry
TTITLE7=Re-Uptake Inhibitor
TTITLE8=Rat Race
TTITLE9=Fudge Pot
TTITLE10=Running Too Long
EXTD=
EXTT0=
EXTT1=
EXTT2=
EXTT3=
EXTT4=
EXTT5=
EXTT6=
EXTT7=
EXTT8=
EXTT9=
EXTT10=
PLAYORDER=
